<svg data-v-fde0c5aa="" xmlns="http://www.w3.org/2000/svg" viewBox="0 0 300 300" class="font"><!----><defs data-v-fde0c5aa=""><!----></defs><rect data-v-fde0c5aa="" fill="#009688" x="0" y="0" width="300px" height="300px" class="logo-background-square"></rect><defs data-v-fde0c5aa=""><!----></defs><g data-v-fde0c5aa="" id="7e459abd-9adb-4553-aaab-1825c705fbe3" fill="#FFFFFF" transform="matrix(3.88692569732666,0,0,3.88692569732666,38.212014174144024,111.9081270807707)"><path d="M0.46 13.30L8.29 13.30L8.46 10.39L7.92 10.39C7.42 11.89 7.18 12.66 5.53 12.66C4.24 12.66 3.81 12.53 3.81 11.63L3.81 8.58L5.14 8.58C6.02 8.58 6.20 8.82 6.43 9.84L6.96 9.84L6.96 6.59L6.43 6.59C6.20 7.62 6.02 7.85 5.14 7.85L3.81 7.85L3.81 4.76C3.81 4.35 3.91 4.26 4.30 4.26L5.35 4.26C6.79 4.26 7.04 4.82 7.48 6.20L8.01 6.20L8.01 3.61L0.46 3.61L0.46 4.14C1.46 4.19 1.57 4.26 1.57 4.97L1.57 11.94C1.57 12.66 1.46 12.73 0.46 12.77ZM9.32 11.44C9.32 12.49 10.02 13.47 11.44 13.47C12.33 13.47 12.95 12.98 13.44 12.66C13.62 13.09 13.86 13.47 14.53 13.47C15.26 13.47 16.14 13.23 16.60 13.05L16.56 12.59C16.38 12.60 16.10 12.59 15.89 12.52C15.71 12.46 15.44 12.29 15.44 11.47L15.44 8.23C15.44 7.36 15.30 6.27 12.82 6.27C10.77 6.27 9.51 7.08 9.51 7.99C9.51 8.62 10.40 8.88 10.77 8.88C11.07 8.88 11.23 8.65 11.34 8.32C11.73 7.13 12.18 6.92 12.57 6.92C12.98 6.92 13.38 7.15 13.38 7.95L13.38 8.69C12.89 9.03 11.72 9.38 10.81 9.69C9.70 10.07 9.32 10.64 9.32 11.44ZM11.48 11.20C11.48 10.54 11.70 10.22 12.12 9.98C12.56 9.74 13.05 9.55 13.38 9.39L13.38 11.42C13.36 12.18 12.89 12.38 12.52 12.38C11.97 12.38 11.48 11.94 11.48 11.20ZM16.81 7.14L17.63 7.14L17.63 11.66C17.63 12.94 18.58 13.47 19.36 13.47C19.94 13.47 20.80 13.20 21.59 12.71L21.43 12.28C21.24 12.36 20.94 12.42 20.64 12.42C20.10 12.42 19.74 12.03 19.74 11.13L19.74 7.14L21.20 7.14L21.20 6.44L19.74 6.44L19.74 4.68L18.93 4.68L17.70 6.44L16.81 6.44ZM22.01 13.30L26.46 13.30L26.46 12.77C25.47 12.73 25.35 12.66 25.35 11.94L25.35 8.85L26.00 8.85C26.70 8.85 27.09 9.18 27.26 9.94C27.37 10.43 27.48 11.19 27.71 11.90C28.04 12.94 28.64 13.30 30.11 13.30L31.15 13.30L31.15 12.77C30.90 12.75 30.66 12.63 30.49 12.46C30.14 12.11 29.93 11.59 29.81 10.86C29.61 9.74 29.34 8.82 27.90 8.46L27.90 8.43C29.29 8.25 30.27 7.34 30.27 6.12C30.27 5.40 30.07 4.80 29.57 4.34C29.04 3.88 28.24 3.61 26.87 3.61L22.01 3.61L22.01 4.14C23.00 4.19 23.11 4.26 23.11 4.97L23.11 11.94C23.11 12.66 23.00 12.73 22.01 12.77ZM25.35 8.20L25.35 4.80C25.35 4.42 25.48 4.26 26.25 4.26C27.20 4.26 27.92 4.77 27.92 6.20C27.92 7.36 27.47 8.20 26.05 8.20ZM32.10 4.44C32.10 5.11 32.59 5.67 33.38 5.67C34.15 5.67 34.66 5.11 34.66 4.44C34.66 3.78 34.17 3.22 33.38 3.22C32.59 3.22 32.10 3.78 32.10 4.44ZM31.49 13.30L35.42 13.30L35.42 12.77C34.62 12.73 34.51 12.67 34.51 12.08L34.51 6.36L34.41 6.27L31.57 6.68L31.57 7.18L32.06 7.25C32.28 7.28 32.40 7.41 32.40 7.97L32.40 12.08C32.40 12.67 32.28 12.73 31.49 12.77ZM35.90 14.64C35.90 16.02 37.35 16.69 39.35 16.69C39.97 16.69 40.99 16.55 41.69 16.17C42.46 15.76 42.99 15.04 42.99 14.03C42.99 12.35 41.69 11.83 40.22 11.83L38.92 11.83C38.23 11.83 37.98 11.61 37.98 11.35C37.98 11.05 38.35 10.88 38.54 10.84C38.81 10.86 39.02 10.86 39.19 10.86C40.84 10.86 42.31 10.26 42.31 8.60C42.31 8.18 42.17 7.74 41.99 7.50L42.91 7.34L43.19 6.29L43.04 6.13L41.29 6.73C40.82 6.47 40.04 6.27 39.28 6.27C36.76 6.27 36.02 7.56 36.02 8.65C36.02 9.81 36.88 10.51 37.73 10.65L37.73 10.68C36.82 10.91 36.23 11.41 36.23 11.97C36.23 12.59 36.90 13.15 37.52 13.29L37.52 13.31C36.93 13.44 35.90 13.71 35.90 14.64ZM37.79 14.50C37.79 14.11 37.94 13.87 38.14 13.73C38.33 13.61 38.75 13.52 39.37 13.52C40.56 13.52 41.30 13.79 41.30 14.64C41.30 15.64 40.50 16.04 39.56 16.04C38.63 16.04 37.79 15.50 37.79 14.50ZM38.21 8.61C38.21 7.42 38.71 6.92 39.27 6.92C39.82 6.92 40.31 7.42 40.31 8.60C40.31 9.59 39.90 10.22 39.26 10.22C38.65 10.22 38.21 9.58 38.21 8.61ZM43.27 13.30L47.04 13.30L47.04 12.77L46.75 12.74C46.45 12.71 46.30 12.64 46.30 12.18L46.30 8.86C46.30 8.55 46.34 8.23 46.44 8.04C46.62 7.67 47.00 7.35 47.59 7.35C48.30 7.35 48.69 7.81 48.69 8.65L48.69 12.18C48.69 12.64 48.54 12.71 48.24 12.74L47.95 12.77L47.95 13.30L51.72 13.30L51.72 12.77C50.92 12.73 50.81 12.67 50.81 12.08L50.81 8.44C50.81 7.13 50.13 6.27 48.66 6.27C47.82 6.27 47.17 6.69 46.30 7.24L46.30 3.00L46.20 2.91L43.36 3.29L43.36 3.79L43.85 3.88C44.07 3.92 44.18 4.05 44.18 4.61L44.18 12.08C44.18 12.67 44.07 12.73 43.27 12.77ZM52.29 7.14L53.10 7.14L53.10 11.66C53.10 12.94 54.05 13.47 54.84 13.47C55.41 13.47 56.28 13.20 57.06 12.71L56.91 12.28C56.71 12.36 56.42 12.42 56.11 12.42C55.58 12.42 55.22 12.03 55.22 11.13L55.22 7.14L56.67 7.14L56.67 6.44L55.22 6.44L55.22 4.68L54.40 4.68L53.17 6.44L52.29 6.44Z"></path></g><!----><!----></svg>